<?xml version="1.0" encoding="UTF-8"?>
<svg enable-background="new 0 0 135.55 135.511" viewBox="0 0 135.55 135.511" xmlns="http://www.w3.org/2000/svg">
 <defs>
  <radialGradient id="a" cx="44.447" cy="46.329" r="84.731" gradientUnits="userSpaceOnUse">
   <stop stop-color="#ffc154" offset="0"/>
   <stop stop-color="#f29b00" offset="1"/>
  </radialGradient>
 </defs>
 <path d="m135.55 67.732c0 34.533-27.088 64.336-61.504 67.5-34.428 3.165-66.644-21.045-72.942-55.092-6.297-34.04 14.95-68.33 48.31-77.686 33.372-9.357 69.43 8.813 81.738 41.207 2.915 7.673 4.398 15.864 4.398 24.071" fill="#d05800"/>
 <path d="m130.76 67.732c0 34.33-28.665 62.995-62.995 62.995s-62.995-28.665-62.995-62.995 28.664-62.995 62.995-62.995 62.995 28.664 62.995 62.995" fill="url(#a)"/>
 <path d="m124.68 43.246c5.089 29.667-12.629 59.468-41.123 69.176-30.22 10.297-64.225-4.923-76.863-34.193 6.073 35.425 42.497 58.713 77.203 49.347 35.831-9.671 55.552-50.162 40.783-84.33" fill="#f28500"/>
 <path d="m107.105,39.768c-8.712,1.802-18.743-10.54-26.297-13.679-14.114-5.867-31.741-3.143-44.526,4.846-13.523,8.449-23.141,24.68-24.622,40.611-.004.045-.005.054-.002.024 .999-9.647.325-18.717 3.999-28.043 6.087-15.458 19.253-27.563 35.127-32.426 16.41-5.027 34.356-1.828 48.495,7.753 4.364,2.96 21.169,18.151 7.826,20.914" fill="#ffe000"/>
 <path d="m95.933 32.025c4.3224 13.452-1.5662 19.748-3.9534 22.171-4.6043 4.6729-11.185 11.638-14.339 17.394-3.6928 6.7399-10.096 29.811-16.782 10.981-8.0045-22.541 3.3009-28.687 8.7113-33.253 3.7608-3.1737 8.371-10.668 1.1446-13.08-10.008-3.3397-15.099 13.253-26.446 10.046-7.3641-2.0817-7.8728-10.163-5.3485-16.388 7.3013-18.006 49.622-20.874 57.013 2.1292z" fill="#d05800"/>
 <path d="m67.438 18.5c-11.62 0.08649-22.907 5.257-25.844 12.5-1.0717 2.643-1.4541 5.7029-0.90625 7.9688s1.6172 3.7517 4.375 4.5312c2.1544 0.60902 3.7318 0.30264 5.5-0.53125s3.6062-2.3171 5.5625-3.9688 4.0081-3.4524 6.5312-4.7188 5.7148-1.8671 8.9688-0.78125c2.3205 0.77435 4.1807 2.1956 5.0938 4.0938s0.83186 3.9523 0.34375 5.6875c-0.97622 3.4703-3.3349 6.3175-5.625 8.25-2.9762 2.5115-6.5815 4.8272-8.6875 8.9688s-3.0181 10.306 0.8125 21.094c0.78018 2.197 1.5427 3.6804 2.125 4.5s0.89022 0.87711 0.75 0.84375-0.32729 0.0781 0-0.15625 0.9164-0.84995 1.5312-1.75c1.2297-1.8001 2.5738-4.6041 3.7812-7.375s2.2878-5.4844 3.375-7.4688c3.4919-6.3733 10.13-13.311 14.781-18.031 1.1532-1.1703 2.819-2.9232 3.8438-5.875s1.4412-7.1392-0.5625-13.375c-1.5966-4.9689-5.0043-8.4692-9.5938-10.875s-10.346-3.5745-16.156-3.5312z" fill="#fff"/>
 <path d="m81.093 105.85c0-17.25-26.751-17.248-26.751 0s26.751 17.252 26.751 0" fill="#d05800"/>
 <path d="m77.983 105.85c0-13.241-20.532-13.238-20.532 0s20.532 13.243 20.532 0" fill="#fff"/>
</svg>
